<svg xmlns="http://www.w3.org/2000/svg" xmlns:xlink="http://www.w3.org/1999/xlink" width="500" zoomAndPan="magnify" viewBox="0 0 375 374.999991" height="500" preserveAspectRatio="xMidYMid meet" version="1.0"><defs><g/><clipPath id="b6e5e88e32"><path d="M 26.285156 122.832031 L 131.699219 122.832031 L 131.699219 242.714844 L 26.285156 242.714844 Z M 26.285156 122.832031 " clip-rule="nonzero"/></clipPath><clipPath id="6cce53900e"><path d="M 31 122.832031 L 136.375 122.832031 L 136.375 242.714844 L 31 242.714844 Z M 31 122.832031 " clip-rule="nonzero"/></clipPath><clipPath id="89fbac4079"><path d="M 28.351562 122.832031 L 133.765625 122.832031 L 133.765625 242.714844 L 28.351562 242.714844 Z M 28.351562 122.832031 " clip-rule="nonzero"/></clipPath></defs><rect x="-37.5" width="450" fill="#ffffff" y="-37.499999" height="449.999989" fill-opacity="1"/><rect x="-37.5" width="450" fill="#ffffff" y="-37.499999" height="449.999989" fill-opacity="1"/><g clip-path="url(#b6e5e88e32)"><path fill="#ffde59" d="M 98.472656 160.675781 L 105.542969 168.820312 L 113.574219 169.59375 L 131.683594 150.617188 L 128.332031 141.992188 L 125.550781 151.277344 L 110.152344 160.835938 L 104.539062 150.433594 L 107.710938 141.695312 C 109.671875 142.882812 111.65625 143.429688 112.796875 143.15625 C 115.445312 142.515625 119.617188 136.746094 118.273438 131.179688 C 116.925781 125.613281 112.296875 121.964844 107.9375 123.015625 C 103.582031 124.0625 101.117188 129.421875 102.464844 134.988281 C 102.578125 135.445312 102.714844 135.902344 102.898438 136.3125 L 97.902344 138.183594 L 88.34375 132.046875 L 75.136719 131.476562 L 65.941406 129.082031 L 50.15625 144.113281 L 43.085938 144.433594 L 51.070312 148.425781 L 67.789062 137.269531 L 80.90625 143.042969 L 77.234375 149.359375 L 80.542969 150.183594 L 64.757812 150.183594 L 75.933594 151.734375 L 73.789062 155.496094 L 78.992188 156.363281 L 54.628906 156.363281 L 71.917969 158.78125 L 70.253906 161.703125 L 75.089844 162.820312 L 41.03125 162.820312 L 67.515625 166.515625 L 65.121094 170.710938 L 59.488281 174.726562 L 59.394531 186.109375 L 54.125 206.117188 L 42.539062 213.871094 L 32.59375 226.691406 L 26.34375 226.074219 L 36.242188 242.863281 L 37.589844 229.566406 L 51.664062 217.886719 L 60.855469 215.308594 L 75.023438 191.015625 L 95.507812 191.195312 L 86.882812 196.558594 L 76.664062 205.636719 L 71.371094 203.148438 L 75.296875 223.636719 L 79.445312 209.742188 L 108.621094 195.484375 L 109.191406 185.722656 L 92.0625 176.164062 L 78.191406 174.726562 L 87.863281 166.972656 Z M 98.472656 160.675781 " fill-opacity="1" fill-rule="nonzero"/></g><g clip-path="url(#6cce53900e)"><path fill="#ffde59" d="M 103.148438 160.675781 L 110.21875 168.820312 L 118.25 169.59375 L 136.359375 150.617188 L 133.007812 141.992188 L 130.222656 151.277344 L 114.828125 160.835938 L 109.214844 150.433594 L 112.386719 141.695312 C 114.347656 142.882812 116.332031 143.429688 117.472656 143.15625 C 120.117188 142.515625 124.292969 136.746094 122.949219 131.179688 C 121.601562 125.613281 116.972656 121.964844 112.613281 123.015625 C 108.257812 124.0625 105.792969 129.421875 107.140625 134.988281 C 107.253906 135.445312 107.390625 135.902344 107.574219 136.3125 L 102.578125 138.183594 L 93.019531 132.046875 L 79.8125 131.476562 L 70.617188 129.082031 L 54.832031 144.113281 L 47.761719 144.433594 L 55.746094 148.425781 L 72.464844 137.269531 L 85.582031 143.042969 L 81.910156 149.359375 L 85.21875 150.183594 L 69.433594 150.183594 L 80.609375 151.734375 L 78.464844 155.496094 L 83.667969 156.363281 L 59.304688 156.363281 L 76.59375 158.78125 L 74.929688 161.703125 L 79.765625 162.820312 L 45.707031 162.820312 L 72.191406 166.515625 L 69.796875 170.710938 L 64.164062 174.726562 L 64.070312 186.109375 L 58.800781 206.117188 L 47.214844 213.871094 L 37.269531 226.691406 L 31.015625 226.074219 L 40.917969 242.863281 L 42.261719 229.566406 L 56.339844 217.886719 L 65.53125 215.308594 L 79.695312 191.015625 L 100.183594 191.195312 L 91.558594 196.558594 L 81.339844 205.636719 L 76.046875 203.148438 L 79.972656 223.636719 L 84.121094 209.742188 L 113.296875 195.484375 L 113.867188 185.722656 L 96.738281 176.164062 L 82.867188 174.726562 L 92.539062 166.972656 Z M 103.148438 160.675781 " fill-opacity="1" fill-rule="nonzero"/></g><g clip-path="url(#89fbac4079)"><path fill="#00bf63" d="M 100.539062 160.675781 L 107.609375 168.820312 L 115.640625 169.59375 L 133.753906 150.617188 L 130.398438 141.992188 L 127.617188 151.277344 L 112.21875 160.835938 L 106.605469 150.433594 L 109.777344 141.695312 C 111.738281 142.882812 113.722656 143.429688 114.863281 143.15625 C 117.511719 142.515625 121.683594 136.746094 120.339844 131.179688 C 118.992188 125.613281 114.363281 121.964844 110.003906 123.015625 C 105.648438 124.0625 103.183594 129.421875 104.53125 134.988281 C 104.644531 135.445312 104.78125 135.902344 104.964844 136.3125 L 99.96875 138.183594 L 90.410156 132.046875 L 77.203125 131.476562 L 68.007812 129.082031 L 52.222656 144.113281 L 45.152344 144.433594 L 53.136719 148.425781 L 69.855469 137.269531 L 82.972656 143.042969 L 79.300781 149.359375 L 82.609375 150.183594 L 66.824219 150.183594 L 78 151.734375 L 75.855469 155.496094 L 81.058594 156.363281 L 56.695312 156.363281 L 73.984375 158.78125 L 72.320312 161.703125 L 77.15625 162.820312 L 43.097656 162.820312 L 69.582031 166.515625 L 67.1875 170.710938 L 61.554688 174.726562 L 61.460938 186.109375 L 56.191406 206.117188 L 44.605469 213.871094 L 34.660156 226.691406 L 28.410156 226.074219 L 38.308594 242.863281 L 39.65625 229.566406 L 53.730469 217.886719 L 62.921875 215.308594 L 77.089844 191.015625 L 97.574219 191.195312 L 88.949219 196.558594 L 78.730469 205.636719 L 73.4375 203.148438 L 77.363281 223.636719 L 81.515625 209.742188 L 110.691406 195.484375 L 111.261719 185.722656 L 94.128906 176.164062 L 80.257812 174.726562 L 89.929688 166.972656 Z M 100.539062 160.675781 " fill-opacity="1" fill-rule="nonzero"/></g><g fill="#00bf63" fill-opacity="1"><g transform="translate(136.379542, 193.656662)"><g><path d="M 14.328125 0.46875 C 11.816406 0.46875 9.5625 -0.0546875 7.5625 -1.109375 C 5.570312 -2.171875 4.003906 -3.640625 2.859375 -5.515625 C 1.722656 -7.390625 1.15625 -9.5 1.15625 -11.84375 C 1.15625 -14.195312 1.722656 -16.3125 2.859375 -18.1875 C 4.003906 -20.0625 5.570312 -21.523438 7.5625 -22.578125 C 9.5625 -23.640625 11.816406 -24.171875 14.328125 -24.171875 C 16.828125 -24.171875 19.078125 -23.640625 21.078125 -22.578125 C 23.078125 -21.523438 24.644531 -20.0625 25.78125 -18.1875 C 26.925781 -16.3125 27.5 -14.195312 27.5 -11.84375 C 27.5 -9.5 26.925781 -7.390625 25.78125 -5.515625 C 24.644531 -3.640625 23.078125 -2.171875 21.078125 -1.109375 C 19.078125 -0.0546875 16.828125 0.46875 14.328125 0.46875 Z M 14.328125 -5.078125 C 15.515625 -5.078125 16.59375 -5.359375 17.5625 -5.921875 C 18.539062 -6.484375 19.3125 -7.28125 19.875 -8.3125 C 20.4375 -9.34375 20.71875 -10.519531 20.71875 -11.84375 C 20.71875 -13.175781 20.4375 -14.359375 19.875 -15.390625 C 19.3125 -16.421875 18.539062 -17.21875 17.5625 -17.78125 C 16.59375 -18.34375 15.515625 -18.625 14.328125 -18.625 C 13.128906 -18.625 12.039062 -18.34375 11.0625 -17.78125 C 10.09375 -17.21875 9.328125 -16.421875 8.765625 -15.390625 C 8.203125 -14.359375 7.921875 -13.175781 7.921875 -11.84375 C 7.921875 -10.519531 8.203125 -9.34375 8.765625 -8.3125 C 9.328125 -7.28125 10.09375 -6.484375 11.0625 -5.921875 C 12.039062 -5.359375 13.128906 -5.078125 14.328125 -5.078125 Z M 14.328125 -5.078125 "/></g></g></g><g fill="#00bf63" fill-opacity="1"><g transform="translate(165.028084, 193.656662)"><g><path d="M 24.921875 -23.703125 L 24.921875 0 L 19.40625 0 L 8.9375 -12.625 L 8.9375 0 L 2.375 0 L 2.375 -23.703125 L 7.890625 -23.703125 L 18.359375 -11.078125 L 18.359375 -23.703125 Z M 24.921875 -23.703125 "/></g></g></g><g fill="#00bf63" fill-opacity="1"><g transform="translate(192.322085, 193.656662)"><g><path d="M 21.40625 -5.1875 L 21.40625 0 L 2.375 0 L 2.375 -23.703125 L 20.953125 -23.703125 L 20.953125 -18.515625 L 9 -18.515625 L 9 -14.53125 L 19.53125 -14.53125 L 19.53125 -9.515625 L 9 -9.515625 L 9 -5.1875 Z M 21.40625 -5.1875 "/></g></g></g><g fill="#00bf63" fill-opacity="1"><g transform="translate(215.078376, 193.656662)"><g><path d="M 9.078125 -18.515625 L 9.078125 -13.3125 L 19.53125 -13.3125 L 19.53125 -8.125 L 9.078125 -8.125 L 9.078125 0 L 2.375 0 L 2.375 -23.703125 L 20.953125 -23.703125 L 20.953125 -18.515625 Z M 9.078125 -18.515625 "/></g></g></g><g fill="#00bf63" fill-opacity="1"><g transform="translate(236.818765, 193.656662)"><g><path d="M 14.328125 0.46875 C 11.816406 0.46875 9.5625 -0.0546875 7.5625 -1.109375 C 5.570312 -2.171875 4.003906 -3.640625 2.859375 -5.515625 C 1.722656 -7.390625 1.15625 -9.5 1.15625 -11.84375 C 1.15625 -14.195312 1.722656 -16.3125 2.859375 -18.1875 C 4.003906 -20.0625 5.570312 -21.523438 7.5625 -22.578125 C 9.5625 -23.640625 11.816406 -24.171875 14.328125 -24.171875 C 16.828125 -24.171875 19.078125 -23.640625 21.078125 -22.578125 C 23.078125 -21.523438 24.644531 -20.0625 25.78125 -18.1875 C 26.925781 -16.3125 27.5 -14.195312 27.5 -11.84375 C 27.5 -9.5 26.925781 -7.390625 25.78125 -5.515625 C 24.644531 -3.640625 23.078125 -2.171875 21.078125 -1.109375 C 19.078125 -0.0546875 16.828125 0.46875 14.328125 0.46875 Z M 14.328125 -5.078125 C 15.515625 -5.078125 16.59375 -5.359375 17.5625 -5.921875 C 18.539062 -6.484375 19.3125 -7.28125 19.875 -8.3125 C 20.4375 -9.34375 20.71875 -10.519531 20.71875 -11.84375 C 20.71875 -13.175781 20.4375 -14.359375 19.875 -15.390625 C 19.3125 -16.421875 18.539062 -17.21875 17.5625 -17.78125 C 16.59375 -18.34375 15.515625 -18.625 14.328125 -18.625 C 13.128906 -18.625 12.039062 -18.34375 11.0625 -17.78125 C 10.09375 -17.21875 9.328125 -16.421875 8.765625 -15.390625 C 8.203125 -14.359375 7.921875 -13.175781 7.921875 -11.84375 C 7.921875 -10.519531 8.203125 -9.34375 8.765625 -8.3125 C 9.328125 -7.28125 10.09375 -6.484375 11.0625 -5.921875 C 12.039062 -5.359375 13.128906 -5.078125 14.328125 -5.078125 Z M 14.328125 -5.078125 "/></g></g></g><g fill="#00bf63" fill-opacity="1"><g transform="translate(265.467306, 193.656662)"><g><path d="M 14.328125 0.46875 C 11.816406 0.46875 9.5625 -0.0546875 7.5625 -1.109375 C 5.570312 -2.171875 4.003906 -3.640625 2.859375 -5.515625 C 1.722656 -7.390625 1.15625 -9.5 1.15625 -11.84375 C 1.15625 -14.195312 1.722656 -16.3125 2.859375 -18.1875 C 4.003906 -20.0625 5.570312 -21.523438 7.5625 -22.578125 C 9.5625 -23.640625 11.816406 -24.171875 14.328125 -24.171875 C 16.828125 -24.171875 19.078125 -23.640625 21.078125 -22.578125 C 23.078125 -21.523438 24.644531 -20.0625 25.78125 -18.1875 C 26.925781 -16.3125 27.5 -14.195312 27.5 -11.84375 C 27.5 -9.5 26.925781 -7.390625 25.78125 -5.515625 C 24.644531 -3.640625 23.078125 -2.171875 21.078125 -1.109375 C 19.078125 -0.0546875 16.828125 0.46875 14.328125 0.46875 Z M 14.328125 -5.078125 C 15.515625 -5.078125 16.59375 -5.359375 17.5625 -5.921875 C 18.539062 -6.484375 19.3125 -7.28125 19.875 -8.3125 C 20.4375 -9.34375 20.71875 -10.519531 20.71875 -11.84375 C 20.71875 -13.175781 20.4375 -14.359375 19.875 -15.390625 C 19.3125 -16.421875 18.539062 -17.21875 17.5625 -17.78125 C 16.59375 -18.34375 15.515625 -18.625 14.328125 -18.625 C 13.128906 -18.625 12.039062 -18.34375 11.0625 -17.78125 C 10.09375 -17.21875 9.328125 -16.421875 8.765625 -15.390625 C 8.203125 -14.359375 7.921875 -13.175781 7.921875 -11.84375 C 7.921875 -10.519531 8.203125 -9.34375 8.765625 -8.3125 C 9.328125 -7.28125 10.09375 -6.484375 11.0625 -5.921875 C 12.039062 -5.359375 13.128906 -5.078125 14.328125 -5.078125 Z M 14.328125 -5.078125 "/></g></g></g><g fill="#00bf63" fill-opacity="1"><g transform="translate(294.115848, 193.656662)"><g><path d="M 7.421875 -18.390625 L 0.140625 -18.390625 L 0.140625 -23.703125 L 21.359375 -23.703125 L 21.359375 -18.390625 L 14.125 -18.390625 L 14.125 0 L 7.421875 0 Z M 7.421875 -18.390625 "/></g></g></g><g fill="#00bf63" fill-opacity="1"><g transform="translate(315.619187, 193.656662)"><g><path d="M 18.25 -12.359375 L 24.171875 -12.359375 L 24.171875 -2.546875 C 22.816406 -1.566406 21.257812 -0.816406 19.5 -0.296875 C 17.738281 0.210938 15.976562 0.46875 14.21875 0.46875 C 11.738281 0.46875 9.503906 -0.0507812 7.515625 -1.09375 C 5.523438 -2.144531 3.96875 -3.609375 2.84375 -5.484375 C 1.71875 -7.359375 1.15625 -9.476562 1.15625 -11.84375 C 1.15625 -14.21875 1.71875 -16.34375 2.84375 -18.21875 C 3.96875 -20.09375 5.535156 -21.550781 7.546875 -22.59375 C 9.554688 -23.644531 11.828125 -24.171875 14.359375 -24.171875 C 16.566406 -24.171875 18.550781 -23.796875 20.3125 -23.046875 C 22.070312 -22.304688 23.539062 -21.238281 24.71875 -19.84375 L 20.453125 -15.984375 C 18.847656 -17.742188 16.925781 -18.625 14.6875 -18.625 C 12.65625 -18.625 11.019531 -18.007812 9.78125 -16.78125 C 8.539062 -15.550781 7.921875 -13.90625 7.921875 -11.84375 C 7.921875 -10.539062 8.203125 -9.375 8.765625 -8.34375 C 9.328125 -7.320312 10.113281 -6.519531 11.125 -5.9375 C 12.144531 -5.363281 13.3125 -5.078125 14.625 -5.078125 C 15.914062 -5.078125 17.125 -5.335938 18.25 -5.859375 Z M 18.25 -12.359375 "/></g></g></g><g fill="#00bf63" fill-opacity="1"><g transform="translate(341.694108, 193.656662)"><g><path d="M 14.328125 0.46875 C 11.816406 0.46875 9.5625 -0.0546875 7.5625 -1.109375 C 5.570312 -2.171875 4.003906 -3.640625 2.859375 -5.515625 C 1.722656 -7.390625 1.15625 -9.5 1.15625 -11.84375 C 1.15625 -14.195312 1.722656 -16.3125 2.859375 -18.1875 C 4.003906 -20.0625 5.570312 -21.523438 7.5625 -22.578125 C 9.5625 -23.640625 11.816406 -24.171875 14.328125 -24.171875 C 16.828125 -24.171875 19.078125 -23.640625 21.078125 -22.578125 C 23.078125 -21.523438 24.644531 -20.0625 25.78125 -18.1875 C 26.925781 -16.3125 27.5 -14.195312 27.5 -11.84375 C 27.5 -9.5 26.925781 -7.390625 25.78125 -5.515625 C 24.644531 -3.640625 23.078125 -2.171875 21.078125 -1.109375 C 19.078125 -0.0546875 16.828125 0.46875 14.328125 0.46875 Z M 14.328125 -5.078125 C 15.515625 -5.078125 16.59375 -5.359375 17.5625 -5.921875 C 18.539062 -6.484375 19.3125 -7.28125 19.875 -8.3125 C 20.4375 -9.34375 20.71875 -10.519531 20.71875 -11.84375 C 20.71875 -13.175781 20.4375 -14.359375 19.875 -15.390625 C 19.3125 -16.421875 18.539062 -17.21875 17.5625 -17.78125 C 16.59375 -18.34375 15.515625 -18.625 14.328125 -18.625 C 13.128906 -18.625 12.039062 -18.34375 11.0625 -17.78125 C 10.09375 -17.21875 9.328125 -16.421875 8.765625 -15.390625 C 8.203125 -14.359375 7.921875 -13.175781 7.921875 -11.84375 C 7.921875 -10.519531 8.203125 -9.34375 8.765625 -8.3125 C 9.328125 -7.28125 10.09375 -6.484375 11.0625 -5.921875 C 12.039062 -5.359375 13.128906 -5.078125 14.328125 -5.078125 Z M 14.328125 -5.078125 "/></g></g></g></svg>