<svg xmlns="http://www.w3.org/2000/svg" xmlns:xlink="http://www.w3.org/1999/xlink" width="500" zoomAndPan="magnify" viewBox="0 0 375 374.999991" height="500" preserveAspectRatio="xMidYMid meet" version="1.0"><defs><g/><clipPath id="a2cd09675b"><path d="M 15.183594 138.082031 L 101.972656 138.082031 L 101.972656 236.785156 L 15.183594 236.785156 Z M 15.183594 138.082031 " clip-rule="nonzero"/></clipPath><clipPath id="f90b6533b4"><path d="M 19.03125 138.082031 L 105.824219 138.082031 L 105.824219 236.785156 L 19.03125 236.785156 Z M 19.03125 138.082031 " clip-rule="nonzero"/></clipPath><clipPath id="1f42f43591"><path d="M 16.886719 138.082031 L 103.675781 138.082031 L 103.675781 236.785156 L 16.886719 236.785156 Z M 16.886719 138.082031 " clip-rule="nonzero"/></clipPath></defs><g clip-path="url(#a2cd09675b)"><path fill="#ffde59" d="M 74.617188 169.242188 L 80.441406 175.945312 L 87.050781 176.582031 L 101.964844 160.957031 L 99.203125 153.859375 L 96.910156 161.503906 L 84.234375 169.371094 L 79.613281 160.808594 L 82.222656 153.613281 C 83.839844 154.589844 85.472656 155.042969 86.414062 154.816406 C 88.589844 154.289062 92.027344 149.539062 90.921875 144.957031 C 89.8125 140.375 86 137.367188 82.414062 138.230469 C 78.824219 139.097656 76.796875 143.511719 77.90625 148.09375 C 78 148.46875 78.109375 148.84375 78.261719 149.183594 L 74.148438 150.722656 L 66.277344 145.667969 L 55.40625 145.199219 L 47.835938 143.226562 L 34.839844 155.605469 L 29.015625 155.867188 L 35.589844 159.15625 L 49.355469 149.96875 L 60.15625 154.722656 L 57.132812 159.925781 L 59.855469 160.601562 L 46.859375 160.601562 L 56.0625 161.878906 L 54.296875 164.976562 L 58.578125 165.691406 L 38.519531 165.691406 L 52.757812 167.679688 L 51.386719 170.085938 L 55.367188 171.003906 L 27.328125 171.003906 L 49.132812 174.046875 L 47.160156 177.503906 L 42.519531 180.808594 L 42.445312 190.179688 L 38.105469 206.652344 L 28.566406 213.039062 L 20.378906 223.59375 L 15.230469 223.085938 L 23.382812 236.910156 L 24.492188 225.960938 L 36.078125 216.34375 L 43.648438 214.222656 L 55.3125 194.21875 L 72.175781 194.371094 L 65.078125 198.785156 L 56.664062 206.257812 L 52.304688 204.210938 L 55.535156 221.078125 L 58.953125 209.640625 L 82.976562 197.902344 L 83.445312 189.863281 L 69.339844 181.992188 L 57.921875 180.808594 L 65.882812 174.425781 Z M 74.617188 169.242188 " fill-opacity="1" fill-rule="nonzero"/></g><g clip-path="url(#f90b6533b4)"><path fill="#ffde59" d="M 78.46875 169.242188 L 84.289062 175.945312 L 90.902344 176.582031 L 105.8125 160.957031 L 103.050781 153.859375 L 100.761719 161.503906 L 88.082031 169.371094 L 83.464844 160.808594 L 86.074219 153.613281 C 87.6875 154.589844 89.324219 155.042969 90.261719 154.816406 C 92.441406 154.289062 95.878906 149.539062 94.769531 144.957031 C 93.660156 140.375 89.847656 137.367188 86.261719 138.230469 C 82.675781 139.097656 80.644531 143.511719 81.753906 148.09375 C 81.847656 148.46875 81.960938 148.84375 82.109375 149.183594 L 77.996094 150.722656 L 70.128906 145.667969 L 59.253906 145.199219 L 51.683594 143.226562 L 38.6875 155.605469 L 32.867188 155.867188 L 39.441406 159.15625 L 53.207031 149.96875 L 64.003906 154.722656 L 60.980469 159.925781 L 63.707031 160.601562 L 50.707031 160.601562 L 59.910156 161.878906 L 58.144531 164.976562 L 62.429688 165.691406 L 42.371094 165.691406 L 56.605469 167.679688 L 55.234375 170.085938 L 59.214844 171.003906 L 31.175781 171.003906 L 52.980469 174.046875 L 51.007812 177.503906 L 46.371094 180.808594 L 46.292969 190.179688 L 41.957031 206.652344 L 32.414062 213.039062 L 24.226562 223.59375 L 19.082031 223.085938 L 27.230469 236.910156 L 28.339844 225.960938 L 39.929688 216.34375 L 47.496094 214.222656 L 59.160156 194.21875 L 76.027344 194.371094 L 68.925781 198.785156 L 60.511719 206.257812 L 56.15625 204.210938 L 59.386719 221.078125 L 62.804688 209.640625 L 86.824219 197.902344 L 87.292969 189.863281 L 73.191406 181.992188 L 61.769531 180.808594 L 69.734375 174.425781 Z M 78.46875 169.242188 " fill-opacity="1" fill-rule="nonzero"/></g><g clip-path="url(#1f42f43591)"><path fill="#00bf63" d="M 76.320312 169.242188 L 82.140625 175.945312 L 88.753906 176.582031 L 103.664062 160.957031 L 100.90625 153.859375 L 98.613281 161.503906 L 85.9375 169.371094 L 81.316406 160.808594 L 83.925781 153.613281 C 85.542969 154.589844 87.175781 155.042969 88.113281 154.816406 C 90.292969 154.289062 93.730469 149.539062 92.621094 144.957031 C 91.515625 140.375 87.703125 137.367188 84.113281 138.230469 C 80.527344 139.097656 78.5 143.511719 79.605469 148.09375 C 79.699219 148.46875 79.8125 148.84375 79.964844 149.183594 L 75.851562 150.722656 L 67.980469 145.667969 L 57.105469 145.199219 L 49.539062 143.226562 L 36.539062 155.605469 L 30.71875 155.867188 L 37.292969 159.15625 L 51.058594 149.96875 L 61.859375 154.722656 L 58.835938 159.925781 L 61.558594 160.601562 L 48.5625 160.601562 L 57.765625 161.878906 L 56 164.976562 L 60.28125 165.691406 L 40.222656 165.691406 L 54.457031 167.679688 L 53.085938 170.085938 L 57.070312 171.003906 L 29.027344 171.003906 L 50.832031 174.046875 L 48.863281 177.503906 L 44.222656 180.808594 L 44.148438 190.179688 L 39.808594 206.652344 L 30.269531 213.039062 L 22.078125 223.59375 L 16.933594 223.085938 L 25.085938 236.910156 L 26.191406 225.960938 L 37.78125 216.34375 L 45.347656 214.222656 L 57.011719 194.21875 L 73.878906 194.371094 L 66.777344 198.785156 L 58.363281 206.257812 L 54.007812 204.210938 L 57.238281 221.078125 L 60.65625 209.640625 L 84.675781 197.902344 L 85.148438 189.863281 L 71.042969 181.992188 L 59.625 180.808594 L 67.585938 174.425781 Z M 76.320312 169.242188 " fill-opacity="1" fill-rule="nonzero"/></g><g fill="#00bf63" fill-opacity="1"><g transform="translate(105.82841, 193.656662)"><g><path d="M 14.328125 0.46875 C 11.816406 0.46875 9.5625 -0.0546875 7.5625 -1.109375 C 5.570312 -2.171875 4.003906 -3.640625 2.859375 -5.515625 C 1.722656 -7.390625 1.15625 -9.5 1.15625 -11.84375 C 1.15625 -14.195312 1.722656 -16.3125 2.859375 -18.1875 C 4.003906 -20.0625 5.570312 -21.523438 7.5625 -22.578125 C 9.5625 -23.640625 11.816406 -24.171875 14.328125 -24.171875 C 16.828125 -24.171875 19.078125 -23.640625 21.078125 -22.578125 C 23.078125 -21.523438 24.644531 -20.0625 25.78125 -18.1875 C 26.925781 -16.3125 27.5 -14.195312 27.5 -11.84375 C 27.5 -9.5 26.925781 -7.390625 25.78125 -5.515625 C 24.644531 -3.640625 23.078125 -2.171875 21.078125 -1.109375 C 19.078125 -0.0546875 16.828125 0.46875 14.328125 0.46875 Z M 14.328125 -5.078125 C 15.515625 -5.078125 16.59375 -5.359375 17.5625 -5.921875 C 18.539062 -6.484375 19.3125 -7.28125 19.875 -8.3125 C 20.4375 -9.34375 20.71875 -10.519531 20.71875 -11.84375 C 20.71875 -13.175781 20.4375 -14.359375 19.875 -15.390625 C 19.3125 -16.421875 18.539062 -17.21875 17.5625 -17.78125 C 16.59375 -18.34375 15.515625 -18.625 14.328125 -18.625 C 13.128906 -18.625 12.039062 -18.34375 11.0625 -17.78125 C 10.09375 -17.21875 9.328125 -16.421875 8.765625 -15.390625 C 8.203125 -14.359375 7.921875 -13.175781 7.921875 -11.84375 C 7.921875 -10.519531 8.203125 -9.34375 8.765625 -8.3125 C 9.328125 -7.28125 10.09375 -6.484375 11.0625 -5.921875 C 12.039062 -5.359375 13.128906 -5.078125 14.328125 -5.078125 Z M 14.328125 -5.078125 "/></g></g></g><g fill="#00bf63" fill-opacity="1"><g transform="translate(134.476952, 193.656662)"><g><path d="M 24.921875 -23.703125 L 24.921875 0 L 19.40625 0 L 8.9375 -12.625 L 8.9375 0 L 2.375 0 L 2.375 -23.703125 L 7.890625 -23.703125 L 18.359375 -11.078125 L 18.359375 -23.703125 Z M 24.921875 -23.703125 "/></g></g></g><g fill="#00bf63" fill-opacity="1"><g transform="translate(161.770953, 193.656662)"><g><path d="M 21.40625 -5.1875 L 21.40625 0 L 2.375 0 L 2.375 -23.703125 L 20.953125 -23.703125 L 20.953125 -18.515625 L 9 -18.515625 L 9 -14.53125 L 19.53125 -14.53125 L 19.53125 -9.515625 L 9 -9.515625 L 9 -5.1875 Z M 21.40625 -5.1875 "/></g></g></g><g fill="#00bf63" fill-opacity="1"><g transform="translate(184.527244, 193.656662)"><g><path d="M 9.078125 -18.515625 L 9.078125 -13.3125 L 19.53125 -13.3125 L 19.53125 -8.125 L 9.078125 -8.125 L 9.078125 0 L 2.375 0 L 2.375 -23.703125 L 20.953125 -23.703125 L 20.953125 -18.515625 Z M 9.078125 -18.515625 "/></g></g></g><g fill="#00bf63" fill-opacity="1"><g transform="translate(206.267633, 193.656662)"><g><path d="M 14.328125 0.46875 C 11.816406 0.46875 9.5625 -0.0546875 7.5625 -1.109375 C 5.570312 -2.171875 4.003906 -3.640625 2.859375 -5.515625 C 1.722656 -7.390625 1.15625 -9.5 1.15625 -11.84375 C 1.15625 -14.195312 1.722656 -16.3125 2.859375 -18.1875 C 4.003906 -20.0625 5.570312 -21.523438 7.5625 -22.578125 C 9.5625 -23.640625 11.816406 -24.171875 14.328125 -24.171875 C 16.828125 -24.171875 19.078125 -23.640625 21.078125 -22.578125 C 23.078125 -21.523438 24.644531 -20.0625 25.78125 -18.1875 C 26.925781 -16.3125 27.5 -14.195312 27.5 -11.84375 C 27.5 -9.5 26.925781 -7.390625 25.78125 -5.515625 C 24.644531 -3.640625 23.078125 -2.171875 21.078125 -1.109375 C 19.078125 -0.0546875 16.828125 0.46875 14.328125 0.46875 Z M 14.328125 -5.078125 C 15.515625 -5.078125 16.59375 -5.359375 17.5625 -5.921875 C 18.539062 -6.484375 19.3125 -7.28125 19.875 -8.3125 C 20.4375 -9.34375 20.71875 -10.519531 20.71875 -11.84375 C 20.71875 -13.175781 20.4375 -14.359375 19.875 -15.390625 C 19.3125 -16.421875 18.539062 -17.21875 17.5625 -17.78125 C 16.59375 -18.34375 15.515625 -18.625 14.328125 -18.625 C 13.128906 -18.625 12.039062 -18.34375 11.0625 -17.78125 C 10.09375 -17.21875 9.328125 -16.421875 8.765625 -15.390625 C 8.203125 -14.359375 7.921875 -13.175781 7.921875 -11.84375 C 7.921875 -10.519531 8.203125 -9.34375 8.765625 -8.3125 C 9.328125 -7.28125 10.09375 -6.484375 11.0625 -5.921875 C 12.039062 -5.359375 13.128906 -5.078125 14.328125 -5.078125 Z M 14.328125 -5.078125 "/></g></g></g><g fill="#00bf63" fill-opacity="1"><g transform="translate(234.916175, 193.656662)"><g><path d="M 14.328125 0.46875 C 11.816406 0.46875 9.5625 -0.0546875 7.5625 -1.109375 C 5.570312 -2.171875 4.003906 -3.640625 2.859375 -5.515625 C 1.722656 -7.390625 1.15625 -9.5 1.15625 -11.84375 C 1.15625 -14.195312 1.722656 -16.3125 2.859375 -18.1875 C 4.003906 -20.0625 5.570312 -21.523438 7.5625 -22.578125 C 9.5625 -23.640625 11.816406 -24.171875 14.328125 -24.171875 C 16.828125 -24.171875 19.078125 -23.640625 21.078125 -22.578125 C 23.078125 -21.523438 24.644531 -20.0625 25.78125 -18.1875 C 26.925781 -16.3125 27.5 -14.195312 27.5 -11.84375 C 27.5 -9.5 26.925781 -7.390625 25.78125 -5.515625 C 24.644531 -3.640625 23.078125 -2.171875 21.078125 -1.109375 C 19.078125 -0.0546875 16.828125 0.46875 14.328125 0.46875 Z M 14.328125 -5.078125 C 15.515625 -5.078125 16.59375 -5.359375 17.5625 -5.921875 C 18.539062 -6.484375 19.3125 -7.28125 19.875 -8.3125 C 20.4375 -9.34375 20.71875 -10.519531 20.71875 -11.84375 C 20.71875 -13.175781 20.4375 -14.359375 19.875 -15.390625 C 19.3125 -16.421875 18.539062 -17.21875 17.5625 -17.78125 C 16.59375 -18.34375 15.515625 -18.625 14.328125 -18.625 C 13.128906 -18.625 12.039062 -18.34375 11.0625 -17.78125 C 10.09375 -17.21875 9.328125 -16.421875 8.765625 -15.390625 C 8.203125 -14.359375 7.921875 -13.175781 7.921875 -11.84375 C 7.921875 -10.519531 8.203125 -9.34375 8.765625 -8.3125 C 9.328125 -7.28125 10.09375 -6.484375 11.0625 -5.921875 C 12.039062 -5.359375 13.128906 -5.078125 14.328125 -5.078125 Z M 14.328125 -5.078125 "/></g></g></g><g fill="#00bf63" fill-opacity="1"><g transform="translate(263.564717, 193.656662)"><g><path d="M 7.421875 -18.390625 L 0.140625 -18.390625 L 0.140625 -23.703125 L 21.359375 -23.703125 L 21.359375 -18.390625 L 14.125 -18.390625 L 14.125 0 L 7.421875 0 Z M 7.421875 -18.390625 "/></g></g></g><g fill="#00bf63" fill-opacity="1"><g transform="translate(285.068056, 193.656662)"><g><path d="M 18.25 -12.359375 L 24.171875 -12.359375 L 24.171875 -2.546875 C 22.816406 -1.566406 21.257812 -0.816406 19.5 -0.296875 C 17.738281 0.210938 15.976562 0.46875 14.21875 0.46875 C 11.738281 0.46875 9.503906 -0.0507812 7.515625 -1.09375 C 5.523438 -2.144531 3.96875 -3.609375 2.84375 -5.484375 C 1.71875 -7.359375 1.15625 -9.476562 1.15625 -11.84375 C 1.15625 -14.21875 1.71875 -16.34375 2.84375 -18.21875 C 3.96875 -20.09375 5.535156 -21.550781 7.546875 -22.59375 C 9.554688 -23.644531 11.828125 -24.171875 14.359375 -24.171875 C 16.566406 -24.171875 18.550781 -23.796875 20.3125 -23.046875 C 22.070312 -22.304688 23.539062 -21.238281 24.71875 -19.84375 L 20.453125 -15.984375 C 18.847656 -17.742188 16.925781 -18.625 14.6875 -18.625 C 12.65625 -18.625 11.019531 -18.007812 9.78125 -16.78125 C 8.539062 -15.550781 7.921875 -13.90625 7.921875 -11.84375 C 7.921875 -10.539062 8.203125 -9.375 8.765625 -8.34375 C 9.328125 -7.320312 10.113281 -6.519531 11.125 -5.9375 C 12.144531 -5.363281 13.3125 -5.078125 14.625 -5.078125 C 15.914062 -5.078125 17.125 -5.335938 18.25 -5.859375 Z M 18.25 -12.359375 "/></g></g></g><g fill="#00bf63" fill-opacity="1"><g transform="translate(311.142977, 193.656662)"><g><path d="M 14.328125 0.46875 C 11.816406 0.46875 9.5625 -0.0546875 7.5625 -1.109375 C 5.570312 -2.171875 4.003906 -3.640625 2.859375 -5.515625 C 1.722656 -7.390625 1.15625 -9.5 1.15625 -11.84375 C 1.15625 -14.195312 1.722656 -16.3125 2.859375 -18.1875 C 4.003906 -20.0625 5.570312 -21.523438 7.5625 -22.578125 C 9.5625 -23.640625 11.816406 -24.171875 14.328125 -24.171875 C 16.828125 -24.171875 19.078125 -23.640625 21.078125 -22.578125 C 23.078125 -21.523438 24.644531 -20.0625 25.78125 -18.1875 C 26.925781 -16.3125 27.5 -14.195312 27.5 -11.84375 C 27.5 -9.5 26.925781 -7.390625 25.78125 -5.515625 C 24.644531 -3.640625 23.078125 -2.171875 21.078125 -1.109375 C 19.078125 -0.0546875 16.828125 0.46875 14.328125 0.46875 Z M 14.328125 -5.078125 C 15.515625 -5.078125 16.59375 -5.359375 17.5625 -5.921875 C 18.539062 -6.484375 19.3125 -7.28125 19.875 -8.3125 C 20.4375 -9.34375 20.71875 -10.519531 20.71875 -11.84375 C 20.71875 -13.175781 20.4375 -14.359375 19.875 -15.390625 C 19.3125 -16.421875 18.539062 -17.21875 17.5625 -17.78125 C 16.59375 -18.34375 15.515625 -18.625 14.328125 -18.625 C 13.128906 -18.625 12.039062 -18.34375 11.0625 -17.78125 C 10.09375 -17.21875 9.328125 -16.421875 8.765625 -15.390625 C 8.203125 -14.359375 7.921875 -13.175781 7.921875 -11.84375 C 7.921875 -10.519531 8.203125 -9.34375 8.765625 -8.3125 C 9.328125 -7.28125 10.09375 -6.484375 11.0625 -5.921875 C 12.039062 -5.359375 13.128906 -5.078125 14.328125 -5.078125 Z M 14.328125 -5.078125 "/></g></g></g></svg>